<?xml version="1.0" encoding="utf-8"?>
<!-- Uploaded to: SVG Repo, www.svgrepo.com, Generator: SVG Repo Mixer Tools -->
<svg width="16px" height="16px" viewBox="0 0 1024 1024" class="icon" version="1.1"
    xmlns="http://www.w3.org/2000/svg">
    <path d="M513.14176 512.24064m-491.68384 0a491.68384 491.68384 0 1 0 983.36768 0 491.68384 491.68384 0 1 0-983.36768 0Z" fill="#365C3C" />
    <path d="M512.512 516.51584m-432.54272 0a432.54272 432.54272 0 1 0 865.08544 0 432.54272 432.54272 0 1 0-865.08544 0Z" fill="#97CF43" />
    <path d="M513.5872 83.97312c238.38208 0.5888 431.46752 193.96608 431.46752 432.49152 0 238.52032-193.08544 431.90272-431.46752 432.4864V83.97312z" fill="#30C03F" />
    <path d="M457.75872 473.41568m-13.88032 0a13.88032 13.88032 0 1 0 27.76064 0 13.88032 13.88032 0 1 0-27.76064 0Z" fill="#486822" />
    <path d="M493.02016 448.82432m-13.88032 0a13.88032 13.88032 0 1 0 27.76064 0 13.88032 13.88032 0 1 0-27.76064 0Z" fill="#486822" />
    <path d="M535.808 448.82432m-13.88032 0a13.88032 13.88032 0 1 0 27.76064 0 13.88032 13.88032 0 1 0-27.76064 0Z" fill="#486822" />
    <path d="M568.29952 473.41568m-13.88032 0a13.88032 13.88032 0 1 0 27.76064 0 13.88032 13.88032 0 1 0-27.76064 0Z" fill="#486822" />
    <path d="M578.80576 514.2272m-13.88032 0a13.88032 13.88032 0 1 0 27.76064 0 13.88032 13.88032 0 1 0-27.76064 0Z" fill="#486822" />
    <path d="M566.31808 549.22752m-13.88032 0a13.88032 13.88032 0 1 0 27.76064 0 13.88032 13.88032 0 1 0-27.76064 0Z" fill="#486822" />
    <path d="M535.808 573.27616m-13.88032 0a13.88032 13.88032 0 1 0 27.76064 0 13.88032 13.88032 0 1 0-27.76064 0Z" fill="#486822" />
    <path d="M494.60224 575.65184m-13.88032 0a13.88032 13.88032 0 1 0 27.76064 0 13.88032 13.88032 0 1 0-27.76064 0Z" fill="#486822" />
    <path d="M461.35296 553.85088m-13.88032 0a13.88032 13.88032 0 1 0 27.76064 0 13.88032 13.88032 0 1 0-27.76064 0Z" fill="#486822" />
    <path d="M447.47264 516.09088m-13.88032 0a13.88032 13.88032 0 1 0 27.76064 0 13.88032 13.88032 0 1 0-27.76064 0Z" fill="#486822" />
    <path d="M474.31168 405.46816c10.11712-4.0448 0-103.87968-29.68064-111.9744-29.68064-8.09472-47.8208 14.45888-49.24416 26.9824-3.37408 29.68064 61.37344 92.01152 78.9248 84.992zM561.12128 407.0144c9.7024 4.9664 78.27968-68.29056 64.86528-95.97952-13.4144-27.68896-42.33216-26.52672-52.70528-19.36896-24.58112 16.97792-28.98432 106.74176-12.16 115.34848zM621.35296 474.12736c3.79392 10.2144 103.84896 2.6112 112.68608-26.8544 8.83712-29.4656-13.25568-48.16896-25.73312-49.90464-29.58848-4.1216-93.52704 59.03872-86.95296 76.75904zM628.5568 547.84c-6.67648 8.61184 52.60288 89.5744 82.29888 81.52576s33.90976-36.6848 28.8-48.2048c-12.12928-27.29472-99.52256-48.256-111.09888-33.32096zM565.07904 616.84736c-10.5216 2.84672-12.05248 103.17824 16.4864 114.6624 28.53888 11.48416 49.17248-8.81152 52.03968-21.08416 6.79424-29.08672-50.28352-98.51392-68.52608-93.57824zM476.91264 618.75712c-9.48224-5.37088-81.11104 64.90112-68.8896 93.1328 12.22144 28.23168 41.1648 28.30336 51.83488 21.59104 25.28256-15.91296 33.50016-105.41056 17.05472-114.72384zM408.28416 557.87008c-4.21888-10.04544-103.86432 1.78688-111.44704 31.60064-7.58272 29.81376 15.27808 47.5648 27.82208 48.77312 29.73184 2.85696 90.94656-62.9504 83.62496-80.37376zM407.56224 463.85664c3.6352-10.27584-78.05952-68.53632-103.72608-51.57376s-20.6848 45.47584-12.2112 54.80448c20.0704 22.11328 109.62944 14.58688 115.93728-3.23072z" fill="#FFFFFF" />
</svg>